<?xml version="1.0" encoding="UTF-8" standalone="no"?>
<svg
   xmlns:dc="http://purl.org/dc/elements/1.1/"
   xmlns:cc="http://creativecommons.org/ns#"
   xmlns:rdf="http://www.w3.org/1999/02/22-rdf-syntax-ns#"
   xmlns:svg="http://www.w3.org/2000/svg"
   xmlns="http://www.w3.org/2000/svg"
   viewBox="0 0 442.33066 217.24933"
   height="217.24933"
   width="442.33066"
   xml:space="preserve"
   id="svg2"
   version="1.1"><metadata
     id="metadata8"><rdf:RDF><cc:Work
         rdf:about=""><dc:format>image/svg+xml</dc:format><dc:type
           rdf:resource="http://purl.org/dc/dcmitype/StillImage" /></cc:Work></rdf:RDF></metadata><defs
     id="defs6"><clipPath
       id="clipPath18"
       clipPathUnits="userSpaceOnUse"><path
         id="path16"
         d="M 0,162.937 H 331.748 V 0 H 0 Z" /></clipPath></defs><g
     transform="matrix(1.3333333,0,0,-1.3333333,0,217.24933)"
     id="g10"><g
       id="g12"><g
         clip-path="url(#clipPath18)"
         id="g14"><g
           transform="translate(192.5703,97.5801)"
           id="g20"><path
             id="path22"
             style="fill:#9c9a9b;fill-opacity:1;fill-rule:nonzero;stroke:none"
             d="m 0,0 h 1.308 c 0,0 -1.62,-7.616 -1.678,-7.928 -0.024,-0.115 -0.093,-0.197 -0.208,-0.197 h -2.108 c -0.092,0 -0.184,0.07 -0.196,0.174 -0.035,0.209 -1.042,6.353 -1.042,6.353 h -0.127 c 0,0 -1.007,-6.144 -1.041,-6.353 -0.012,-0.104 -0.104,-0.174 -0.208,-0.174 h -2.096 c -0.115,0 -0.184,0.082 -0.208,0.197 C -7.662,-7.616 -9.282,0 -9.282,0 h 1.308 l 1.354,-6.967 h 0.463 L -4.919,0 h 1.853 l 1.249,-6.967 h 0.451 z" /></g><g
           transform="translate(195.2588,97.5801)"
           id="g24"><path
             id="path26"
             style="fill:#9c9a9b;fill-opacity:1;fill-rule:nonzero;stroke:none"
             d="M 0,0 H 5.543 V -1.03 H 1.181 V -3.449 H 5.058 V -4.502 H 1.181 v -2.512 h 4.35 V -8.102 H 0 Z" /></g><g
           transform="translate(203.0039,97.5801)"
           id="g28"><path
             id="path30"
             style="fill:#9c9a9b;fill-opacity:1;fill-rule:nonzero;stroke:none"
             d="M 0,0 V -0.903 C 0,-1.574 -0.104,-1.609 -1.03,-2.847 L -1.539,-2.5 c 0.439,0.937 0.498,0.949 0.498,1.643 V 0 Z" /></g><g
           transform="translate(209.335,94.8135)"
           id="g32"><path
             id="path34"
             style="fill:#9c9a9b;fill-opacity:1;fill-rule:nonzero;stroke:none"
             d="M 0,0 V 0.498 C 0,1.389 -0.382,1.76 -1.284,1.76 h -2.789 v -3.067 h 2.789 C -0.382,-1.307 0,-0.891 0,0 m -4.073,-5.335 h -1.181 v 8.102 h 4.132 c 1.411,0 2.186,-0.753 2.186,-2.072 v -0.949 c 0,-1.065 -0.474,-1.713 -1.376,-1.933 l 1.62,-3.148 H 0.046 l -1.562,2.998 h -2.557 z" /></g><g
           transform="translate(212.2187,97.5801)"
           id="g36"><path
             id="path38"
             style="fill:#9c9a9b;fill-opacity:1;fill-rule:nonzero;stroke:none"
             d="M 0,0 H 5.543 V -1.03 H 1.181 V -3.449 H 5.058 V -4.502 H 1.181 V -7.014 H 5.532 V -8.102 H 0 Z" /></g><g
           transform="translate(223.9922,92.939)"
           id="g40"><path
             id="path42"
             style="fill:#9c9a9b;fill-opacity:1;fill-rule:nonzero;stroke:none"
             d="M 0,0 H 2.928 L 1.713,3.657 H 1.227 Z M 3.229,-1.134 H -0.289 L -1.053,-3.46 h -1.331 c 0,0 2.558,7.661 2.639,7.904 0.034,0.15 0.069,0.197 0.312,0.197 H 2.361 C 2.604,4.641 2.639,4.594 2.685,4.444 2.767,4.201 5.324,-3.46 5.324,-3.46 H 3.993 Z" /></g><g
           transform="translate(230.6611,97.5801)"
           id="g44"><path
             id="path46"
             style="fill:#9c9a9b;fill-opacity:1;fill-rule:nonzero;stroke:none"
             d="M 0,0 H 1.18 V -7.048 H 5.427 V -8.102 H 0 Z" /></g><g
           transform="translate(237.2373,97.5801)"
           id="g48"><path
             id="path50"
             style="fill:#9c9a9b;fill-opacity:1;fill-rule:nonzero;stroke:none"
             d="M 0,0 H 1.18 V -7.048 H 5.427 V -8.102 H 0 Z" /></g><g
           transform="translate(249.415,93.9341)"
           id="g52"><path
             id="path54"
             style="fill:#9c9a9b;fill-opacity:1;fill-rule:nonzero;stroke:none"
             d="M 0,0 H 3.541 L 3.425,-4.178 c 0,-0.197 -0.151,-0.219 -0.196,-0.219 0,0 -2.153,-0.116 -4.086,-0.116 -1.389,-0.012 -2.175,0.856 -2.175,2.176 v 3.865 c 0,1.319 0.786,2.187 2.175,2.175 2.234,0 3.865,-0.057 3.865,-0.057 L 2.997,2.627 h -3.564 c -0.904,0 -1.286,-0.37 -1.286,-1.261 v -3.53 c 0,-0.891 0.382,-1.273 1.286,-1.261 L 2.337,-3.402 2.396,-1.099 0,-1.042 Z" /></g><g
           transform="translate(256.4414,92.939)"
           id="g56"><path
             id="path58"
             style="fill:#9c9a9b;fill-opacity:1;fill-rule:nonzero;stroke:none"
             d="M 0,0 H 2.929 L 1.713,3.657 H 1.228 Z M 3.229,-1.134 H -0.288 L -1.053,-3.46 h -1.33 c 0,0 2.558,7.661 2.638,7.904 0.035,0.15 0.069,0.197 0.312,0.197 H 2.362 C 2.604,4.641 2.64,4.594 2.686,4.444 2.767,4.201 5.324,-3.46 5.324,-3.46 H 3.993 Z" /></g><g
           transform="translate(269.915,97.4985)"
           id="g60"><path
             id="path62"
             style="fill:#9c9a9b;fill-opacity:1;fill-rule:nonzero;stroke:none"
             d="M 0,0 C 0,0 0.023,0.082 0.116,0.082 H 1.725 V -8.02 H 0.544 v 6.134 h -0.08 l -2.27,-6.018 c 0,0 -0.022,-0.116 -0.126,-0.116 h -1.204 c -0.116,0 -0.138,0.116 -0.138,0.116 l -2.269,6.018 H -5.624 V -8.02 h -1.181 v 8.102 h 1.61 C -5.104,0.082 -5.08,0 -5.08,0 l 2.465,-6.423 h 0.15 z" /></g><g
           transform="translate(273.5762,97.5801)"
           id="g64"><path
             id="path66"
             style="fill:#9c9a9b;fill-opacity:1;fill-rule:nonzero;stroke:none"
             d="M 0,0 H 5.543 V -1.03 H 1.181 V -3.449 H 5.058 V -4.502 H 1.181 v -2.512 h 4.35 V -8.102 H 0 Z" /></g><g
           transform="translate(286.0889,94.8135)"
           id="g68"><path
             id="path70"
             style="fill:#9c9a9b;fill-opacity:1;fill-rule:nonzero;stroke:none"
             d="M 0,0 V 0.498 C 0,1.389 -0.382,1.76 -1.284,1.76 h -2.789 v -3.067 h 2.789 C -0.382,-1.307 0,-0.891 0,0 m -4.073,-5.335 h -1.181 v 8.102 h 4.132 c 1.411,0 2.187,-0.753 2.187,-2.072 v -0.949 c 0,-1.065 -0.475,-1.713 -1.377,-1.933 l 1.62,-3.148 H 0.046 l -1.562,2.998 h -2.557 z" /></g><g
           transform="translate(294.459,96.5386)"
           id="g72"><path
             id="path74"
             style="fill:#9c9a9b;fill-opacity:1;fill-rule:nonzero;stroke:none"
             d="m 0,0 h -3.438 c -0.97,0 -1.179,-0.127 -1.179,-0.949 v -0.29 c 0,-0.416 0.126,-0.509 0.647,-0.613 0,0 2.397,-0.452 3.068,-0.578 1.03,-0.197 1.4,-0.591 1.4,-1.574 v -1.1 c 0,-1.447 -0.602,-2.014 -2.407,-2.002 -2.014,0 -3.946,0.104 -3.946,0.104 l 0.01,1.007 h 3.809 c 1.064,0 1.353,0.22 1.353,1.088 v 0.682 c 0,0.371 -0.104,0.614 -0.579,0.706 -0.694,0.139 -2.419,0.452 -2.893,0.533 -1.099,0.196 -1.665,0.324 -1.665,1.458 v 0.695 c 0,1.446 0.624,1.944 2.419,1.932 2.013,0 3.413,-0.104 3.413,-0.104 z" /></g><g
           transform="translate(296.8457,90.7979)"
           id="g76"><path
             id="path78"
             style="fill:#9c9a9b;fill-opacity:1;fill-rule:nonzero;stroke:none"
             d="M 0,0 C 0.404,0 0.718,-0.301 0.718,-0.706 0.718,-1.099 0.404,-1.4 0,-1.4 c -0.395,0 -0.706,0.301 -0.706,0.694 C -0.706,-0.301 -0.395,0 0,0" /></g><path
           id="path80"
           style="fill:#9c9a9b;fill-opacity:1;fill-rule:nonzero;stroke:none"
           d="m 177.22,87.455 h -0.544 v 12.092 h 0.544 z" /><g
           transform="translate(68.1201,87.4546)"
           id="g82"><path
             id="path84"
             style="fill:#e51636;fill-opacity:1;fill-rule:nonzero;stroke:none"
             d="m 0,0 h 4.403 c 0,0 0.991,3.317 1.073,3.585 0.205,0.116 9.34,5.342 9.34,5.342 l 0.952,3.168 h -4.402 c 0,0 -0.4,-1.344 -0.47,-1.584 C 10.693,10.398 4.27,6.737 4.028,6.598 c -0.211,0.185 -3.992,3.451 -4.347,3.754 0.117,0.387 0.527,1.743 0.527,1.743 h -0.41 -4.002 l -0.9,-3.031 c 0,0 5.838,-5.06 6.207,-5.375 C 0.953,3.18 0,0 0,0" /></g><g
           transform="translate(105.2534,92.3638)"
           id="g86"><path
             id="path88"
             style="fill:#e51636;fill-opacity:1;fill-rule:nonzero;stroke:none"
             d="m 0,0 -1.471,-4.909 h 19.968 l 0.955,3.19 H 4.297 c 0.963,0.411 6.679,2.808 6.679,2.808 0,0 -4.552,2.538 -5.222,2.905 h 15.415 l 0.954,3.192 H 21.713 2.153 L 0.725,2.422 c 0,0 1.397,-0.788 2.153,-1.225 C 1.947,0.814 0,0 0,0" /></g><g
           transform="translate(46.5786,99.5493)"
           id="g90"><path
             id="path92"
             style="fill:#e51636;fill-opacity:1;fill-rule:nonzero;stroke:none"
             d="M 0,0 H -4.37 L -8,-12.095 h 4.378 z" /></g><g
           transform="translate(61.7383,99.5493)"
           id="g94"><path
             id="path96"
             style="fill:#e51636;fill-opacity:1;fill-rule:nonzero;stroke:none"
             d="m 0,0 h -3.994 c 0,0 -1.208,-4.03 -1.337,-4.45 h -10.013 l -0.962,-3.195 h 10.024 c -0.251,-0.822 -1.339,-4.45 -1.339,-4.45 h 4.404 L 0.404,0 Z" /></g><g
           transform="translate(88.8696,96.3579)"
           id="g98"><path
             id="path100"
             style="fill:#e51636;fill-opacity:1;fill-rule:nonzero;stroke:none"
             d="M 0,0 H 11.161 C 11.103,-0.187 10.919,-0.794 10.857,-1.001 10.661,-1.079 7.182,-2.545 7.104,-2.575 H 0.368 l -0.954,-3.19 h 8.401 l 6.884,2.892 1.819,6.064 H 16.116 -3.441 L -7.08,-8.903 h 4.407 z" /></g><g
           transform="translate(127.0459,91.5034)"
           id="g102"><path
             id="path104"
             style="fill:#e51636;fill-opacity:1;fill-rule:nonzero;stroke:none"
             d="m 0,0 -1.213,-4.049 h 4.401 c 0,0 0.75,2.515 0.923,3.071 C 2.786,-0.611 1.416,-0.289 0,0" /></g><g
           transform="translate(132.9102,96.3579)"
           id="g106"><path
             id="path108"
             style="fill:#e51636;fill-opacity:1;fill-rule:nonzero;stroke:none"
             d="M 0,0 H 11.155 C 11.018,-0.467 10.878,-0.936 10.823,-1.126 10.614,-1.208 7.466,-2.545 7.397,-2.575 H -0.779 C -0.612,-2.031 -0.104,-0.331 0,0 m 8.305,-5.604 6.35,2.589 1.863,6.206 H 16.102 -3.454 L -5.356,-3.16 c 3.92,-0.128 8.735,-0.741 13.661,-2.444" /></g><g
           transform="translate(168.9805,63.667)"
           id="g110"><path
             id="path112"
             style="fill:#bdbcbc;fill-opacity:1;fill-rule:nonzero;stroke:none"
             d="m 0,0 c -2.994,8.887 -7.531,15.197 -12.673,19.661 4.608,4.486 7.752,10.565 8.318,18.786 0,0 -1.882,-8.176 -11.971,-15.98 -15.002,10.213 -32.946,7.311 -32.946,7.311 11.937,-0.853 21.679,-4.975 29.257,-9.899 -9.451,-6.002 -24.425,-11.183 -48.022,-11.356 0,0 33.775,-5.089 52.172,8.433 C -5.256,8.872 0,0 0,0" /></g><g
           transform="translate(170.9912,96.9878)"
           id="g114"><path
             id="path116"
             style="fill:#231f20;fill-opacity:1;fill-rule:nonzero;stroke:none"
             d="M 0,0 -0.094,1.505 C -0.103,1.702 -0.103,1.947 -0.113,2.22 H -0.141 C -0.207,1.994 -0.282,1.693 -0.357,1.458 L -0.818,0.037 h -0.528 l -0.46,1.459 C -1.854,1.693 -1.929,1.994 -1.984,2.22 h -0.029 c 0,-0.235 -0.009,-0.48 -0.019,-0.715 L -2.126,0 h -0.489 l 0.187,2.559 h 0.763 l 0.442,-1.251 c 0.056,-0.198 0.104,-0.386 0.169,-0.65 h 0.01 c 0.065,0.236 0.122,0.452 0.179,0.64 l 0.441,1.261 H 0.311 L 0.508,0 Z M -2.766,2.559 V 2.135 H -3.584 V 0 H -4.093 V 2.135 H -4.91 v 0.424 z" /></g></g></g></g></svg>